<svg width="87" height="75" viewBox="0 0 87 75" fill="none" xmlns="http://www.w3.org/2000/svg">
<path d="M39.8065 73.8766C41.4396 74.7878 43.4045 74.7374 45.0279 73.8094C55.9655 67.5587 74.9717 53.1692 82.4361 34.4781C93.3921 10.1418 67.6675 -9.28486 49.8882 4.68751C48.0337 6.14502 45.7019 7.81315 44.0972 9.39331C43.3716 10.1078 42.0928 10.1806 41.3398 9.49533C39.2298 7.57575 35.9325 5.11337 33.8149 3.68068C18.6579 -6.57403 -8.92077 6.94345 2.84332 35.7928C7.1528 48.7424 27.689 67.1142 39.8065 73.8766Z" fill="url(#paint0_radial_3_22)"/>
<path d="M39.8065 73.8766C41.4396 74.7878 43.4045 74.7374 45.0279 73.8094C55.9655 67.5587 74.9717 53.1692 82.4361 34.4781C93.3921 10.1418 67.6675 -9.28486 49.8882 4.68751C48.0337 6.14502 45.7019 7.81315 44.0972 9.39331C43.3716 10.1078 42.0928 10.1806 41.3398 9.49533C39.2298 7.57575 35.9325 5.11337 33.8149 3.68068C18.6579 -6.57403 -8.92077 6.94345 2.84332 35.7928C7.1528 48.7424 27.689 67.1142 39.8065 73.8766Z" fill="url(#paint1_radial_3_22)"/>
<path d="M39.8065 73.8766C41.4396 74.7878 43.4045 74.7374 45.0279 73.8094C55.9655 67.5587 74.9717 53.1692 82.4361 34.4781C93.3921 10.1418 67.6675 -9.28486 49.8882 4.68751C48.0337 6.14502 45.7019 7.81315 44.0972 9.39331C43.3716 10.1078 42.0928 10.1806 41.3398 9.49533C39.2298 7.57575 35.9325 5.11337 33.8149 3.68068C18.6579 -6.57403 -8.92077 6.94345 2.84332 35.7928C7.1528 48.7424 27.689 67.1142 39.8065 73.8766Z" fill="url(#paint2_radial_3_22)"/>
<path d="M39.8065 73.8766C41.4396 74.7878 43.4045 74.7374 45.0279 73.8094C55.9655 67.5587 74.9717 53.1692 82.4361 34.4781C93.3921 10.1418 67.6675 -9.28486 49.8882 4.68751C48.0337 6.14502 45.7019 7.81315 44.0972 9.39331C43.3716 10.1078 42.0928 10.1806 41.3398 9.49533C39.2298 7.57575 35.9325 5.11337 33.8149 3.68068C18.6579 -6.57403 -8.92077 6.94345 2.84332 35.7928C7.1528 48.7424 27.689 67.1142 39.8065 73.8766Z" fill="url(#paint3_radial_3_22)"/>
<path d="M39.8065 73.8766C41.4396 74.7878 43.4045 74.7374 45.0279 73.8094C55.9655 67.5587 74.9717 53.1692 82.4361 34.4781C93.3921 10.1418 67.6675 -9.28486 49.8882 4.68751C48.0337 6.14502 45.7019 7.81315 44.0972 9.39331C43.3716 10.1078 42.0928 10.1806 41.3398 9.49533C39.2298 7.57575 35.9325 5.11337 33.8149 3.68068C18.6579 -6.57403 -8.92077 6.94345 2.84332 35.7928C7.1528 48.7424 27.689 67.1142 39.8065 73.8766Z" fill="url(#paint4_linear_3_22)"/>
<path d="M39.8065 73.8766C41.4396 74.7878 43.4045 74.7374 45.0279 73.8094C55.9655 67.5587 74.9717 53.1692 82.4361 34.4781C93.3921 10.1418 67.6675 -9.28486 49.8882 4.68751C48.0337 6.14502 45.7019 7.81315 44.0972 9.39331C43.3716 10.1078 42.0928 10.1806 41.3398 9.49533C39.2298 7.57575 35.9325 5.11337 33.8149 3.68068C18.6579 -6.57403 -8.92077 6.94345 2.84332 35.7928C7.1528 48.7424 27.689 67.1142 39.8065 73.8766Z" fill="url(#paint5_linear_3_22)"/>
<path d="M39.8065 73.8766C41.4396 74.7878 43.4045 74.7374 45.0279 73.8094C55.9655 67.5587 74.9717 53.1692 82.4361 34.4781C93.3921 10.1418 67.6675 -9.28486 49.8882 4.68751C48.0337 6.14502 45.7019 7.81315 44.0972 9.39331C43.3716 10.1078 42.0928 10.1806 41.3398 9.49533C39.2298 7.57575 35.9325 5.11337 33.8149 3.68068C18.6579 -6.57403 -8.92077 6.94345 2.84332 35.7928C7.1528 48.7424 27.689 67.1142 39.8065 73.8766Z" fill="url(#paint6_radial_3_22)" fill-opacity="0.6"/>
<path d="M41.917 16.9133V37.74C41.917 40.502 45.2614 41.8112 46.9834 39.6515C52.3104 32.9695 56.6069 24.8442 51.8119 18.207C49.9737 15.6624 46.4516 14.0321 43.574 14.5508C42.4973 14.7448 41.917 15.8193 41.917 16.9133Z" fill="#FA1C56"/>
<path d="M76.5143 27.5652C81.9077 22.3221 82.7552 14.4458 78.407 9.97298C74.0589 5.50017 66.1618 6.12461 60.7683 11.3677C55.3748 16.6108 54.5274 24.4872 58.8755 28.96C63.2237 33.4328 71.1208 32.8083 76.5143 27.5652Z" fill="url(#paint7_radial_3_22)"/>
<path d="M64.8339 4.33353C67.6651 4.68944 70.0208 4.49572 70.0956 3.90084C70.1704 3.30596 67.9359 2.53519 65.1047 2.17928C62.2736 1.82337 59.9179 2.0171 59.8431 2.61197C59.7683 3.20685 62.0028 3.97762 64.8339 4.33353Z" fill="#FF7383"/>
<path d="M22.0253 3.9769C24.5853 3.94575 26.6565 3.57965 26.6514 3.1592C26.6463 2.73875 24.5668 2.42316 22.0067 2.45432C19.4467 2.48547 17.3755 2.85157 17.3806 3.27202C17.3857 3.69247 19.4652 4.00806 22.0253 3.9769Z" fill="#FF93BA" fill-opacity="0.5"/>
<path d="M38.6712 15.1464L39.6254 46.4353C18.639 26.0213 14.6035 11.6856 22.6454 8.46894C30.277 5.41637 36.3821 10.3768 38.6712 15.1464Z" fill="url(#paint8_radial_3_22)"/>
<path d="M37.1453 13.315C34.5811 12.9487 33.7874 10.8221 33.7111 9.80454C35.1764 11.3308 36.6111 11.458 37.1453 11.3308V13.315Z" fill="#FF7383"/>
<defs>
<radialGradient id="paint0_radial_3_22" cx="0" cy="0" r="1" gradientUnits="userSpaceOnUse" gradientTransform="translate(41.8389 1.93419) rotate(90) scale(70.1616 74.4889)">
<stop stop-color="#FC0000"/>
<stop offset="0.527969" stop-color="#FF3B79"/>
<stop offset="1" stop-color="#F724B3"/>
</radialGradient>
<radialGradient id="paint1_radial_3_22" cx="0" cy="0" r="1" gradientUnits="userSpaceOnUse" gradientTransform="translate(63.6406 19.4238) rotate(134.402) scale(64.9118 121.586)">
<stop offset="0.797874" stop-color="#C82092" stop-opacity="0"/>
<stop offset="0.908039" stop-color="#C82092"/>
</radialGradient>
<radialGradient id="paint2_radial_3_22" cx="0" cy="0" r="1" gradientUnits="userSpaceOnUse" gradientTransform="translate(54.3971 39.038) rotate(-158.663) scale(69.4427 98.1673)">
<stop offset="0.40984" stop-color="#B91D43" stop-opacity="0"/>
<stop offset="0.833898" stop-color="#B91D43"/>
</radialGradient>
<radialGradient id="paint3_radial_3_22" cx="0" cy="0" r="1" gradientUnits="userSpaceOnUse" gradientTransform="translate(40.8541 26.9099) rotate(90) scale(60.4383 60.4383)">
<stop offset="0.671096" stop-color="#FF7AF2" stop-opacity="0"/>
<stop offset="0.933555" stop-color="#FFBCE6"/>
</radialGradient>
<linearGradient id="paint4_linear_3_22" x1="47.5246" y1="33.9845" x2="71.9826" y2="63.0919" gradientUnits="userSpaceOnUse">
<stop offset="0.694491" stop-color="#FF7AF2" stop-opacity="0"/>
<stop offset="0.933555" stop-color="#FFBCE6"/>
</linearGradient>
<linearGradient id="paint5_linear_3_22" x1="44.4925" y1="35.1973" x2="15.7893" y2="67.5388" gradientUnits="userSpaceOnUse">
<stop offset="0.694491" stop-color="#FF7AF2" stop-opacity="0"/>
<stop offset="0.933555" stop-color="#FFBCE6"/>
</linearGradient>
<radialGradient id="paint6_radial_3_22" cx="0" cy="0" r="1" gradientUnits="userSpaceOnUse" gradientTransform="translate(49.3613 24.1021) rotate(164.618) scale(52.5486 55.4962)">
<stop offset="0.802083" stop-color="#FF73A6" stop-opacity="0"/>
<stop offset="1" stop-color="#FF93BA"/>
</radialGradient>
<radialGradient id="paint7_radial_3_22" cx="0" cy="0" r="1" gradientUnits="userSpaceOnUse" gradientTransform="translate(78.1292 9.70921) rotate(128.737) scale(22.2574 29.5965)">
<stop stop-color="#FF7383"/>
<stop offset="1" stop-color="#FF7383" stop-opacity="0"/>
</radialGradient>
<radialGradient id="paint8_radial_3_22" cx="0" cy="0" r="1" gradientUnits="userSpaceOnUse" gradientTransform="translate(43.2504 26.9825) rotate(-135.591) scale(38.7251 68.7437)">
<stop stop-color="#FF6274"/>
<stop offset="1" stop-color="#FF6274" stop-opacity="0"/>
</radialGradient>
</defs>
</svg>
