<svg width="87" height="81" viewBox="0 0 87 81" fill="none" xmlns="http://www.w3.org/2000/svg">
<path d="M25.708 2.68285C29.1541 -1.19634 33.8397 -0.578935 36.8378 2.68285L38.6662 4.79978C39.2995 5.48861 40.2154 5.84579 41.1479 5.76729L44.3983 4.79978C48.8295 3.84993 52.8558 7.1555 52.8558 12.2897V14.2238C52.9497 15.2796 53.8721 15.9954 54.8244 16.4605L57.7613 17.6877C62.0097 19.7625 63.0713 24.6856 59.9769 28.8176L59.0978 29.978C58.3091 31.044 58.4712 32.4435 59.2559 33.5122L60.135 34.743C63.335 38.6817 61.5308 44.0853 57.0107 45.9729L54.4823 47.029C53.5299 47.4267 53.1569 48.1095 52.9787 49.1257L52.803 52.4313C52.1876 56.9678 48.1588 59.0167 44.926 58.559L41.0754 57.5304C40.1505 57.3995 39.0006 57.7061 38.3852 58.6733L36.9962 60.5724C33.5498 64.4582 28.8984 63.8119 26.5519 61.5392L23.9894 58.4358C23.3185 57.7861 22.4726 57.2315 21.4602 57.6135L17.5846 58.6733C14.385 59.1263 10.6174 56.6667 10.0143 53.4917L9.56679 48.8972C9.38516 47.9409 8.75454 47.1303 7.87222 46.7193L5.15354 45.7852C1.06525 43.8799 -0.304068 39.2675 2.04332 35.4162L3.57564 33.297C4.19113 32.2872 4.16189 31.0113 3.50073 30.0309L2.35785 28.4131C-0.877343 23.8065 1.35946 18.6574 6.15348 17.1138L7.21082 16.7734C8.37784 16.3976 9.50512 15.4284 9.60208 14.2063L9.83754 11.2394C10.2197 6.42366 14.6141 3.66037 19.2361 5.06547L20.7319 5.5202C22.1737 6.08285 23.3033 5.60369 24.0902 4.74655L25.708 2.68285Z" fill="url(#paint0_linear_1_27)"/>
<path d="M25.708 2.68285C29.1541 -1.19634 33.8397 -0.578935 36.8378 2.68285L38.6662 4.79978C39.2995 5.48861 40.2154 5.84579 41.1479 5.76729L44.3983 4.79978C48.8295 3.84993 52.8558 7.1555 52.8558 12.2897V14.2238C52.9497 15.2796 53.8721 15.9954 54.8244 16.4605L57.7613 17.6877C62.0097 19.7625 63.0713 24.6856 59.9769 28.8176L59.0978 29.978C58.3091 31.044 58.4712 32.4435 59.2559 33.5122L60.135 34.743C63.335 38.6817 61.5308 44.0853 57.0107 45.9729L54.4823 47.029C53.5299 47.4267 53.1569 48.1095 52.9787 49.1257L52.803 52.4313C52.1876 56.9678 48.1588 59.0167 44.926 58.559L41.0754 57.5304C40.1505 57.3995 39.0006 57.7061 38.3852 58.6733L36.9962 60.5724C33.5498 64.4582 28.8984 63.8119 26.5519 61.5392L23.9894 58.4358C23.3185 57.7861 22.4726 57.2315 21.4602 57.6135L17.5846 58.6733C14.385 59.1263 10.6174 56.6667 10.0143 53.4917L9.56679 48.8972C9.38516 47.9409 8.75454 47.1303 7.87222 46.7193L5.15354 45.7852C1.06525 43.8799 -0.304068 39.2675 2.04332 35.4162L3.57564 33.297C4.19113 32.2872 4.16189 31.0113 3.50073 30.0309L2.35785 28.4131C-0.877343 23.8065 1.35946 18.6574 6.15348 17.1138L7.21082 16.7734C8.37784 16.3976 9.50512 15.4284 9.60208 14.2063L9.83754 11.2394C10.2197 6.42366 14.6141 3.66037 19.2361 5.06547L20.7319 5.5202C22.1737 6.08285 23.3033 5.60369 24.0902 4.74655L25.708 2.68285Z" fill="url(#paint1_radial_1_27)"/>
<path d="M25.708 2.68285C29.1541 -1.19634 33.8397 -0.578935 36.8378 2.68285L38.6662 4.79978C39.2995 5.48861 40.2154 5.84579 41.1479 5.76729L44.3983 4.79978C48.8295 3.84993 52.8558 7.1555 52.8558 12.2897V14.2238C52.9497 15.2796 53.8721 15.9954 54.8244 16.4605L57.7613 17.6877C62.0097 19.7625 63.0713 24.6856 59.9769 28.8176L59.0978 29.978C58.3091 31.044 58.4712 32.4435 59.2559 33.5122L60.135 34.743C63.335 38.6817 61.5308 44.0853 57.0107 45.9729L54.4823 47.029C53.5299 47.4267 53.1569 48.1095 52.9787 49.1257L52.803 52.4313C52.1876 56.9678 48.1588 59.0167 44.926 58.559L41.0754 57.5304C40.1505 57.3995 39.0006 57.7061 38.3852 58.6733L36.9962 60.5724C33.5498 64.4582 28.8984 63.8119 26.5519 61.5392L23.9894 58.4358C23.3185 57.7861 22.4726 57.2315 21.4602 57.6135L17.5846 58.6733C14.385 59.1263 10.6174 56.6667 10.0143 53.4917L9.56679 48.8972C9.38516 47.9409 8.75454 47.1303 7.87222 46.7193L5.15354 45.7852C1.06525 43.8799 -0.304068 39.2675 2.04332 35.4162L3.57564 33.297C4.19113 32.2872 4.16189 31.0113 3.50073 30.0309L2.35785 28.4131C-0.877343 23.8065 1.35946 18.6574 6.15348 17.1138L7.21082 16.7734C8.37784 16.3976 9.50512 15.4284 9.60208 14.2063L9.83754 11.2394C10.2197 6.42366 14.6141 3.66037 19.2361 5.06547L20.7319 5.5202C22.1737 6.08285 23.3033 5.60369 24.0902 4.74655L25.708 2.68285Z" fill="url(#paint2_radial_1_27)"/>
<path d="M25.708 2.68285C29.1541 -1.19634 33.8397 -0.578935 36.8378 2.68285L38.6662 4.79978C39.2995 5.48861 40.2154 5.84579 41.1479 5.76729L44.3983 4.79978C48.8295 3.84993 52.8558 7.1555 52.8558 12.2897V14.2238C52.9497 15.2796 53.8721 15.9954 54.8244 16.4605L57.7613 17.6877C62.0097 19.7625 63.0713 24.6856 59.9769 28.8176L59.0978 29.978C58.3091 31.044 58.4712 32.4435 59.2559 33.5122L60.135 34.743C63.335 38.6817 61.5308 44.0853 57.0107 45.9729L54.4823 47.029C53.5299 47.4267 53.1569 48.1095 52.9787 49.1257L52.803 52.4313C52.1876 56.9678 48.1588 59.0167 44.926 58.559L41.0754 57.5304C40.1505 57.3995 39.0006 57.7061 38.3852 58.6733L36.9962 60.5724C33.5498 64.4582 28.8984 63.8119 26.5519 61.5392L23.9894 58.4358C23.3185 57.7861 22.4726 57.2315 21.4602 57.6135L17.5846 58.6733C14.385 59.1263 10.6174 56.6667 10.0143 53.4917L9.56679 48.8972C9.38516 47.9409 8.75454 47.1303 7.87222 46.7193L5.15354 45.7852C1.06525 43.8799 -0.304068 39.2675 2.04332 35.4162L3.57564 33.297C4.19113 32.2872 4.16189 31.0113 3.50073 30.0309L2.35785 28.4131C-0.877343 23.8065 1.35946 18.6574 6.15348 17.1138L7.21082 16.7734C8.37784 16.3976 9.50512 15.4284 9.60208 14.2063L9.83754 11.2394C10.2197 6.42366 14.6141 3.66037 19.2361 5.06547L20.7319 5.5202C22.1737 6.08285 23.3033 5.60369 24.0902 4.74655L25.708 2.68285Z" fill="url(#paint3_radial_1_27)"/>
<path d="M25.708 2.68285C29.1541 -1.19634 33.8397 -0.578935 36.8378 2.68285L38.6662 4.79978C39.2995 5.48861 40.2154 5.84579 41.1479 5.76729L44.3983 4.79978C48.8295 3.84993 52.8558 7.1555 52.8558 12.2897V14.2238C52.9497 15.2796 53.8721 15.9954 54.8244 16.4605L57.7613 17.6877C62.0097 19.7625 63.0713 24.6856 59.9769 28.8176L59.0978 29.978C58.3091 31.044 58.4712 32.4435 59.2559 33.5122L60.135 34.743C63.335 38.6817 61.5308 44.0853 57.0107 45.9729L54.4823 47.029C53.5299 47.4267 53.1569 48.1095 52.9787 49.1257L52.803 52.4313C52.1876 56.9678 48.1588 59.0167 44.926 58.559L41.0754 57.5304C40.1505 57.3995 39.0006 57.7061 38.3852 58.6733L36.9962 60.5724C33.5498 64.4582 28.8984 63.8119 26.5519 61.5392L23.9894 58.4358C23.3185 57.7861 22.4726 57.2315 21.4602 57.6135L17.5846 58.6733C14.385 59.1263 10.6174 56.6667 10.0143 53.4917L9.56679 48.8972C9.38516 47.9409 8.75454 47.1303 7.87222 46.7193L5.15354 45.7852C1.06525 43.8799 -0.304068 39.2675 2.04332 35.4162L3.57564 33.297C4.19113 32.2872 4.16189 31.0113 3.50073 30.0309L2.35785 28.4131C-0.877343 23.8065 1.35946 18.6574 6.15348 17.1138L7.21082 16.7734C8.37784 16.3976 9.50512 15.4284 9.60208 14.2063L9.83754 11.2394C10.2197 6.42366 14.6141 3.66037 19.2361 5.06547L20.7319 5.5202C22.1737 6.08285 23.3033 5.60369 24.0902 4.74655L25.708 2.68285Z" fill="url(#paint4_radial_1_27)"/>
<path d="M25.708 2.68285C29.1541 -1.19634 33.8397 -0.578935 36.8378 2.68285L38.6662 4.79978C39.2995 5.48861 40.2154 5.84579 41.1479 5.76729L44.3983 4.79978C48.8295 3.84993 52.8558 7.1555 52.8558 12.2897V14.2238C52.9497 15.2796 53.8721 15.9954 54.8244 16.4605L57.7613 17.6877C62.0097 19.7625 63.0713 24.6856 59.9769 28.8176L59.0978 29.978C58.3091 31.044 58.4712 32.4435 59.2559 33.5122L60.135 34.743C63.335 38.6817 61.5308 44.0853 57.0107 45.9729L54.4823 47.029C53.5299 47.4267 53.1569 48.1095 52.9787 49.1257L52.803 52.4313C52.1876 56.9678 48.1588 59.0167 44.926 58.559L41.0754 57.5304C40.1505 57.3995 39.0006 57.7061 38.3852 58.6733L36.9962 60.5724C33.5498 64.4582 28.8984 63.8119 26.5519 61.5392L23.9894 58.4358C23.3185 57.7861 22.4726 57.2315 21.4602 57.6135L17.5846 58.6733C14.385 59.1263 10.6174 56.6667 10.0143 53.4917L9.56679 48.8972C9.38516 47.9409 8.75454 47.1303 7.87222 46.7193L5.15354 45.7852C1.06525 43.8799 -0.304068 39.2675 2.04332 35.4162L3.57564 33.297C4.19113 32.2872 4.16189 31.0113 3.50073 30.0309L2.35785 28.4131C-0.877343 23.8065 1.35946 18.6574 6.15348 17.1138L7.21082 16.7734C8.37784 16.3976 9.50512 15.4284 9.60208 14.2063L9.83754 11.2394C10.2197 6.42366 14.6141 3.66037 19.2361 5.06547L20.7319 5.5202C22.1737 6.08285 23.3033 5.60369 24.0902 4.74655L25.708 2.68285Z" fill="url(#paint5_radial_1_27)"/>
<path d="M25.708 2.68285C29.1541 -1.19634 33.8397 -0.578935 36.8378 2.68285L38.6662 4.79978C39.2995 5.48861 40.2154 5.84579 41.1479 5.76729L44.3983 4.79978C48.8295 3.84993 52.8558 7.1555 52.8558 12.2897V14.2238C52.9497 15.2796 53.8721 15.9954 54.8244 16.4605L57.7613 17.6877C62.0097 19.7625 63.0713 24.6856 59.9769 28.8176L59.0978 29.978C58.3091 31.044 58.4712 32.4435 59.2559 33.5122L60.135 34.743C63.335 38.6817 61.5308 44.0853 57.0107 45.9729L54.4823 47.029C53.5299 47.4267 53.1569 48.1095 52.9787 49.1257L52.803 52.4313C52.1876 56.9678 48.1588 59.0167 44.926 58.559L41.0754 57.5304C40.1505 57.3995 39.0006 57.7061 38.3852 58.6733L36.9962 60.5724C33.5498 64.4582 28.8984 63.8119 26.5519 61.5392L23.9894 58.4358C23.3185 57.7861 22.4726 57.2315 21.4602 57.6135L17.5846 58.6733C14.385 59.1263 10.6174 56.6667 10.0143 53.4917L9.56679 48.8972C9.38516 47.9409 8.75454 47.1303 7.87222 46.7193L5.15354 45.7852C1.06525 43.8799 -0.304068 39.2675 2.04332 35.4162L3.57564 33.297C4.19113 32.2872 4.16189 31.0113 3.50073 30.0309L2.35785 28.4131C-0.877343 23.8065 1.35946 18.6574 6.15348 17.1138L7.21082 16.7734C8.37784 16.3976 9.50512 15.4284 9.60208 14.2063L9.83754 11.2394C10.2197 6.42366 14.6141 3.66037 19.2361 5.06547L20.7319 5.5202C22.1737 6.08285 23.3033 5.60369 24.0902 4.74655L25.708 2.68285Z" fill="url(#paint6_radial_1_27)"/>
<path d="M25.708 2.68285C29.1541 -1.19634 33.8397 -0.578935 36.8378 2.68285L38.6662 4.79978C39.2995 5.48861 40.2154 5.84579 41.1479 5.76729L44.3983 4.79978C48.8295 3.84993 52.8558 7.1555 52.8558 12.2897V14.2238C52.9497 15.2796 53.8721 15.9954 54.8244 16.4605L57.7613 17.6877C62.0097 19.7625 63.0713 24.6856 59.9769 28.8176L59.0978 29.978C58.3091 31.044 58.4712 32.4435 59.2559 33.5122L60.135 34.743C63.335 38.6817 61.5308 44.0853 57.0107 45.9729L54.4823 47.029C53.5299 47.4267 53.1569 48.1095 52.9787 49.1257L52.803 52.4313C52.1876 56.9678 48.1588 59.0167 44.926 58.559L41.0754 57.5304C40.1505 57.3995 39.0006 57.7061 38.3852 58.6733L36.9962 60.5724C33.5498 64.4582 28.8984 63.8119 26.5519 61.5392L23.9894 58.4358C23.3185 57.7861 22.4726 57.2315 21.4602 57.6135L17.5846 58.6733C14.385 59.1263 10.6174 56.6667 10.0143 53.4917L9.56679 48.8972C9.38516 47.9409 8.75454 47.1303 7.87222 46.7193L5.15354 45.7852C1.06525 43.8799 -0.304068 39.2675 2.04332 35.4162L3.57564 33.297C4.19113 32.2872 4.16189 31.0113 3.50073 30.0309L2.35785 28.4131C-0.877343 23.8065 1.35946 18.6574 6.15348 17.1138L7.21082 16.7734C8.37784 16.3976 9.50512 15.4284 9.60208 14.2063L9.83754 11.2394C10.2197 6.42366 14.6141 3.66037 19.2361 5.06547L20.7319 5.5202C22.1737 6.08285 23.3033 5.60369 24.0902 4.74655L25.708 2.68285Z" fill="url(#paint7_radial_1_27)"/>
<path d="M25.708 2.68285C29.1541 -1.19634 33.8397 -0.578935 36.8378 2.68285L38.6662 4.79978C39.2995 5.48861 40.2154 5.84579 41.1479 5.76729L44.3983 4.79978C48.8295 3.84993 52.8558 7.1555 52.8558 12.2897V14.2238C52.9497 15.2796 53.8721 15.9954 54.8244 16.4605L57.7613 17.6877C62.0097 19.7625 63.0713 24.6856 59.9769 28.8176L59.0978 29.978C58.3091 31.044 58.4712 32.4435 59.2559 33.5122L60.135 34.743C63.335 38.6817 61.5308 44.0853 57.0107 45.9729L54.4823 47.029C53.5299 47.4267 53.1569 48.1095 52.9787 49.1257L52.803 52.4313C52.1876 56.9678 48.1588 59.0167 44.926 58.559L41.0754 57.5304C40.1505 57.3995 39.0006 57.7061 38.3852 58.6733L36.9962 60.5724C33.5498 64.4582 28.8984 63.8119 26.5519 61.5392L23.9894 58.4358C23.3185 57.7861 22.4726 57.2315 21.4602 57.6135L17.5846 58.6733C14.385 59.1263 10.6174 56.6667 10.0143 53.4917L9.56679 48.8972C9.38516 47.9409 8.75454 47.1303 7.87222 46.7193L5.15354 45.7852C1.06525 43.8799 -0.304068 39.2675 2.04332 35.4162L3.57564 33.297C4.19113 32.2872 4.16189 31.0113 3.50073 30.0309L2.35785 28.4131C-0.877343 23.8065 1.35946 18.6574 6.15348 17.1138L7.21082 16.7734C8.37784 16.3976 9.50512 15.4284 9.60208 14.2063L9.83754 11.2394C10.2197 6.42366 14.6141 3.66037 19.2361 5.06547L20.7319 5.5202C22.1737 6.08285 23.3033 5.60369 24.0902 4.74655L25.708 2.68285Z" fill="url(#paint8_radial_1_27)"/>
<path d="M25.708 2.68285C29.1541 -1.19634 33.8397 -0.578935 36.8378 2.68285L38.6662 4.79978C39.2995 5.48861 40.2154 5.84579 41.1479 5.76729L44.3983 4.79978C48.8295 3.84993 52.8558 7.1555 52.8558 12.2897V14.2238C52.9497 15.2796 53.8721 15.9954 54.8244 16.4605L57.7613 17.6877C62.0097 19.7625 63.0713 24.6856 59.9769 28.8176L59.0978 29.978C58.3091 31.044 58.4712 32.4435 59.2559 33.5122L60.135 34.743C63.335 38.6817 61.5308 44.0853 57.0107 45.9729L54.4823 47.029C53.5299 47.4267 53.1569 48.1095 52.9787 49.1257L52.803 52.4313C52.1876 56.9678 48.1588 59.0167 44.926 58.559L41.0754 57.5304C40.1505 57.3995 39.0006 57.7061 38.3852 58.6733L36.9962 60.5724C33.5498 64.4582 28.8984 63.8119 26.5519 61.5392L23.9894 58.4358C23.3185 57.7861 22.4726 57.2315 21.4602 57.6135L17.5846 58.6733C14.385 59.1263 10.6174 56.6667 10.0143 53.4917L9.56679 48.8972C9.38516 47.9409 8.75454 47.1303 7.87222 46.7193L5.15354 45.7852C1.06525 43.8799 -0.304068 39.2675 2.04332 35.4162L3.57564 33.297C4.19113 32.2872 4.16189 31.0113 3.50073 30.0309L2.35785 28.4131C-0.877343 23.8065 1.35946 18.6574 6.15348 17.1138L7.21082 16.7734C8.37784 16.3976 9.50512 15.4284 9.60208 14.2063L9.83754 11.2394C10.2197 6.42366 14.6141 3.66037 19.2361 5.06547L20.7319 5.5202C22.1737 6.08285 23.3033 5.60369 24.0902 4.74655L25.708 2.68285Z" fill="url(#paint9_radial_1_27)"/>
<path d="M31.2981 55.8037C44.6512 55.8037 55.4763 44.9789 55.4763 31.6258C55.4763 18.2724 44.6512 7.44746 31.2981 7.44746C17.9448 7.44746 7.11994 18.2724 7.11994 31.6258C7.11994 44.9789 17.9448 55.8037 31.2981 55.8037Z" fill="url(#paint10_radial_1_27)"/>
<path d="M31.2981 55.8037C44.6512 55.8037 55.4763 44.9789 55.4763 31.6258C55.4763 18.2724 44.6512 7.44746 31.2981 7.44746C17.9448 7.44746 7.11994 18.2724 7.11994 31.6258C7.11994 44.9789 17.9448 55.8037 31.2981 55.8037Z" fill="url(#paint11_radial_1_27)"/>
<path d="M31.2981 55.8037C44.6512 55.8037 55.4763 44.9789 55.4763 31.6258C55.4763 18.2724 44.6512 7.44746 31.2981 7.44746C17.9448 7.44746 7.11994 18.2724 7.11994 31.6258C7.11994 44.9789 17.9448 55.8037 31.2981 55.8037Z" fill="url(#paint12_radial_1_27)"/>
<path d="M31.6822 57.6169C38.572 57.6169 44.1574 52.0314 44.1574 45.1416C44.1574 38.2518 38.572 32.6664 31.6822 32.6664C24.7921 32.6664 19.2068 38.2518 19.2068 45.1416C19.2068 52.0314 24.7921 57.6169 31.6822 57.6169Z" fill="url(#paint13_radial_1_27)"/>
<path d="M31.6822 57.6169C38.572 57.6169 44.1574 52.0314 44.1574 45.1416C44.1574 38.2518 38.572 32.6664 31.6822 32.6664C24.7921 32.6664 19.2068 38.2518 19.2068 45.1416C19.2068 52.0314 24.7921 57.6169 31.6822 57.6169Z" fill="url(#paint14_radial_1_27)"/>
<path d="M77.9394 32.6355C66.9773 21.9513 49.4378 22.1366 38.7536 33.0987C35.9012 36.0075 33.8493 39.3814 32.5277 42.9841C32.3458 43.4794 31.7372 43.6733 31.2971 43.3821C30.3371 42.747 29.3137 42.1921 28.2546 41.7449C25.7225 40.5715 22.9125 39.923 19.948 39.923C8.92413 39.923 0 48.8472 0 59.8711C0 64.5648 1.6366 68.8879 4.35399 72.3155C8.02863 77.1326 13.8031 80.2206 20.3186 80.2206H59.5045C68.2124 80.2206 75.9014 75.9283 80.595 69.351C88.9942 58.358 88.0678 42.5478 77.9394 32.6355Z" fill="#E0D3FF"/>
<path d="M77.9394 32.6355C66.9773 21.9513 49.4378 22.1366 38.7536 33.0987C35.9012 36.0075 33.8493 39.3814 32.5277 42.9841C32.3458 43.4794 31.7372 43.6733 31.2971 43.3821C30.3371 42.747 29.3137 42.1921 28.2546 41.7449C25.7225 40.5715 22.9125 39.923 19.948 39.923C8.92413 39.923 0 48.8472 0 59.8711C0 64.5648 1.6366 68.8879 4.35399 72.3155C8.02863 77.1326 13.8031 80.2206 20.3186 80.2206H59.5045C68.2124 80.2206 75.9014 75.9283 80.595 69.351C88.9942 58.358 88.0678 42.5478 77.9394 32.6355Z" fill="#E0D3FF"/>
<path d="M77.9394 32.6355C66.9773 21.9513 49.4378 22.1366 38.7536 33.0987C35.9012 36.0075 33.8493 39.3814 32.5277 42.9841C32.3458 43.4794 31.7372 43.6733 31.2971 43.3821C30.3371 42.747 29.3137 42.1921 28.2546 41.7449C25.7225 40.5715 22.9125 39.923 19.948 39.923C8.92413 39.923 0 48.8472 0 59.8711C0 64.5648 1.6366 68.8879 4.35399 72.3155C8.02863 77.1326 13.8031 80.2206 20.3186 80.2206H59.5045C68.2124 80.2206 75.9014 75.9283 80.595 69.351C88.9942 58.358 88.0678 42.5478 77.9394 32.6355Z" fill="url(#paint15_radial_1_27)"/>
<path d="M77.9394 32.6355C66.9773 21.9513 49.4378 22.1366 38.7536 33.0987C35.9012 36.0075 33.8493 39.3814 32.5277 42.9841C32.3458 43.4794 31.7372 43.6733 31.2971 43.3821C30.3371 42.747 29.3137 42.1921 28.2546 41.7449C25.7225 40.5715 22.9125 39.923 19.948 39.923C8.92413 39.923 0 48.8472 0 59.8711C0 64.5648 1.6366 68.8879 4.35399 72.3155C8.02863 77.1326 13.8031 80.2206 20.3186 80.2206H59.5045C68.2124 80.2206 75.9014 75.9283 80.595 69.351C88.9942 58.358 88.0678 42.5478 77.9394 32.6355Z" fill="url(#paint16_radial_1_27)"/>
<path d="M77.9394 32.6355C66.9773 21.9513 49.4378 22.1366 38.7536 33.0987C35.9012 36.0075 33.8493 39.3814 32.5277 42.9841C32.3458 43.4794 31.7372 43.6733 31.2971 43.3821C30.3371 42.747 29.3137 42.1921 28.2546 41.7449C25.7225 40.5715 22.9125 39.923 19.948 39.923C8.92413 39.923 0 48.8472 0 59.8711C0 64.5648 1.6366 68.8879 4.35399 72.3155C8.02863 77.1326 13.8031 80.2206 20.3186 80.2206H59.5045C68.2124 80.2206 75.9014 75.9283 80.595 69.351C88.9942 58.358 88.0678 42.5478 77.9394 32.6355Z" fill="url(#paint17_radial_1_27)"/>
<path d="M77.9394 32.6355C66.9773 21.9513 49.4378 22.1366 38.7536 33.0987C35.9012 36.0075 33.8493 39.3814 32.5277 42.9841C32.3458 43.4794 31.7372 43.6733 31.2971 43.3821C30.3371 42.747 29.3137 42.1921 28.2546 41.7449C25.7225 40.5715 22.9125 39.923 19.948 39.923C8.92413 39.923 0 48.8472 0 59.8711C0 64.5648 1.6366 68.8879 4.35399 72.3155C8.02863 77.1326 13.8031 80.2206 20.3186 80.2206H59.5045C68.2124 80.2206 75.9014 75.9283 80.595 69.351C88.9942 58.358 88.0678 42.5478 77.9394 32.6355Z" fill="url(#paint18_radial_1_27)"/>
<defs>
<linearGradient id="paint0_linear_1_27" x1="50.0764" y1="10.6409" x2="15.5296" y2="54.7176" gradientUnits="userSpaceOnUse">
<stop stop-color="#FC8B23"/>
<stop offset="1" stop-color="#E67639"/>
</linearGradient>
<radialGradient id="paint1_radial_1_27" cx="0" cy="0" r="1" gradientUnits="userSpaceOnUse" gradientTransform="translate(37.1145 2.92223) rotate(138.155) scale(8.50423 7.50337)">
<stop offset="0.300161" stop-color="#FFA13A"/>
<stop offset="1" stop-color="#FFA13A" stop-opacity="0"/>
</radialGradient>
<radialGradient id="paint2_radial_1_27" cx="0" cy="0" r="1" gradientUnits="userSpaceOnUse" gradientTransform="translate(14.9884 0.237576) rotate(67.8105) scale(13.5197 11.9286)">
<stop offset="0.300161" stop-color="#FF942A"/>
<stop offset="1" stop-color="#FF942A" stop-opacity="0"/>
</radialGradient>
<radialGradient id="paint3_radial_1_27" cx="0" cy="0" r="1" gradientUnits="userSpaceOnUse" gradientTransform="translate(51.2977 12.8506) rotate(-164.745) scale(5.39051 7.46384)">
<stop offset="0.300161" stop-color="#FFA13D"/>
<stop offset="1" stop-color="#FFA13D" stop-opacity="0"/>
</radialGradient>
<radialGradient id="paint4_radial_1_27" cx="0" cy="0" r="1" gradientUnits="userSpaceOnUse" gradientTransform="translate(62.1715 20.6988) rotate(154.195) scale(9.55762 7.05898)">
<stop offset="0.300161" stop-color="#FFA13D"/>
<stop offset="1" stop-color="#FFA13D" stop-opacity="0"/>
</radialGradient>
<radialGradient id="paint5_radial_1_27" cx="0" cy="0" r="1" gradientUnits="userSpaceOnUse" gradientTransform="translate(64.2519 36.8678) rotate(-173.379) scale(10.6613 6.00804)">
<stop offset="0.300161" stop-color="#FFA13D"/>
<stop offset="1" stop-color="#FFA13D" stop-opacity="0"/>
</radialGradient>
<radialGradient id="paint6_radial_1_27" cx="0" cy="0" r="1" gradientUnits="userSpaceOnUse" gradientTransform="translate(54.7018 49.2545) rotate(-43.9639) scale(9.6707 9.31657)">
<stop stop-color="#E0762A"/>
<stop offset="1" stop-color="#E0762A" stop-opacity="0"/>
</radialGradient>
<radialGradient id="paint7_radial_1_27" cx="0" cy="0" r="1" gradientUnits="userSpaceOnUse" gradientTransform="translate(9.88234 46.9851) rotate(-127.747) scale(7.41403 7.14254)">
<stop stop-color="#E0762A"/>
<stop offset="1" stop-color="#E0762A" stop-opacity="0"/>
</radialGradient>
<radialGradient id="paint8_radial_1_27" cx="0" cy="0" r="1" gradientUnits="userSpaceOnUse" gradientTransform="translate(-0.235115 21.9278) rotate(25.2777) scale(7.52891 9.09977)">
<stop stop-color="#F0851D"/>
<stop offset="1" stop-color="#F0851D" stop-opacity="0"/>
</radialGradient>
<radialGradient id="paint9_radial_1_27" cx="0" cy="0" r="1" gradientUnits="userSpaceOnUse" gradientTransform="translate(44.7065 59.9921) rotate(-142.487) scale(8.77791 8.28122)">
<stop offset="0.336586" stop-color="#E3745B"/>
<stop offset="1" stop-color="#E3745B" stop-opacity="0"/>
</radialGradient>
<radialGradient id="paint10_radial_1_27" cx="0" cy="0" r="1" gradientUnits="userSpaceOnUse" gradientTransform="translate(45.0187 17.6182) rotate(117.739) scale(43.144 53.2786)">
<stop offset="0.17178" stop-color="#FFD13D"/>
<stop offset="1" stop-color="#D89A29"/>
</radialGradient>
<radialGradient id="paint11_radial_1_27" cx="0" cy="0" r="1" gradientUnits="userSpaceOnUse" gradientTransform="translate(22.7046 45.5465) rotate(-140.631) scale(15.0506 12.7071)">
<stop offset="0.340699" stop-color="#DCA225"/>
<stop offset="1" stop-color="#DCA225" stop-opacity="0"/>
</radialGradient>
<radialGradient id="paint12_radial_1_27" cx="0" cy="0" r="1" gradientUnits="userSpaceOnUse" gradientTransform="translate(51.0469 27.4969) rotate(168.299) scale(51.4894 43.4719)">
<stop offset="0.620449" stop-color="#DCA225" stop-opacity="0"/>
<stop offset="1" stop-color="#DCA225"/>
</radialGradient>
<radialGradient id="paint13_radial_1_27" cx="0" cy="0" r="1" gradientUnits="userSpaceOnUse" gradientTransform="translate(30.8299 43.0107) rotate(-110.468) scale(11.0412 10.7239)">
<stop offset="0.30655" stop-color="#CECDFF"/>
<stop offset="1" stop-color="#B7B6FA"/>
</radialGradient>
<radialGradient id="paint14_radial_1_27" cx="0" cy="0" r="1" gradientUnits="userSpaceOnUse" gradientTransform="translate(35.5115 40.2368) rotate(-148.811) scale(4.47645 14.8858)">
<stop offset="0.401187" stop-color="#B8B7FF"/>
<stop offset="1" stop-color="#B8B7FF" stop-opacity="0"/>
</radialGradient>
<radialGradient id="paint15_radial_1_27" cx="0" cy="0" r="1" gradientUnits="userSpaceOnUse" gradientTransform="translate(44.5184 59.6241) rotate(-106.955) scale(40.1184 22.5404)">
<stop stop-color="#D6CCFF"/>
<stop offset="1" stop-color="#D6CCFF" stop-opacity="0"/>
</radialGradient>
<radialGradient id="paint16_radial_1_27" cx="0" cy="0" r="1" gradientUnits="userSpaceOnUse" gradientTransform="translate(81.2552 40.6706) rotate(147.006) scale(37.3838 41.7581)">
<stop offset="0.189911" stop-color="#F2F0FF"/>
<stop offset="1" stop-color="#F2F0FF" stop-opacity="0"/>
</radialGradient>
<radialGradient id="paint17_radial_1_27" cx="0" cy="0" r="1" gradientUnits="userSpaceOnUse" gradientTransform="translate(21.8212 50.7324) rotate(147.319) scale(29.4681 35.9093)">
<stop stop-color="#F2F0FF"/>
<stop offset="0.695905" stop-color="#F2F0FF" stop-opacity="0"/>
</radialGradient>
<radialGradient id="paint18_radial_1_27" cx="0" cy="0" r="1" gradientUnits="userSpaceOnUse" gradientTransform="translate(28.6069 38.3306) rotate(71.9061) scale(24.8627 9.26896)">
<stop stop-color="#F2F0FF"/>
<stop offset="1" stop-color="#F2F0FF" stop-opacity="0"/>
</radialGradient>
</defs>
</svg>
